<?xml version="1.0" encoding="UTF-8"?>
<svg id="Ebene_1" xmlns="http://www.w3.org/2000/svg" version="1.1" viewBox="0 0 193.876 193.884">
  <!-- Generator: Adobe Illustrator 30.0.0, SVG Export Plug-In . SVG Version: 2.1.1 Build 123)  -->
  <polygon points="64.033 137.923 69.451 138.036 66.847 128.572 64.033 137.923" fill="#b91b11"/>
  <g>
    <path d="M96.925,0C43.401,0,0,43.388,0,96.925s43.401,96.959,96.925,96.959,96.95-43.408,96.95-96.959S150.474,0,96.925,0M105.784,46.493l5.207,17.301,4.58-17.466,11.034-.19.493,27.844-8.292.128-.262-15.595-4.225,15.693-6.375.106-4.763-15.535.262,15.603-8.229.144-.484-27.83,11.054-.204ZM127.895,110.08h-8.297v-25.316h8.297v25.316ZM63.664,55.4c.58-1.707,1.379-3.143,2.395-4.304,1.04-1.188,2.096-2.101,3.215-2.739,1.114-.632,2.326-1.143,3.654-1.496,1.316-.368,2.687-.558,4.151-.59,2.751-.051,5.271.481,7.597,1.6,2.338,1.102,4.122,2.761,5.385,4.932,1.267,2.159,1.917,4.669,1.982,7.514.049,2.804-.453,5.316-1.483,7.571-1.046,2.228-2.648,4.041-4.818,5.464-2.17,1.426-4.827,2.172-7.987,2.219-4.437.083-8.017-1.209-10.728-3.832-2.727-2.641-4.098-6.175-4.181-10.61-.045-2.124.222-4.035.819-5.729M43.095,47.595l.162,9.192,8.061-9.334,10.758-.19-10.023,10.667,11.527,17.155-10.907.189-6.868-10.969-2.381,2.43.159,8.706-8.86.144-.498-27.822,8.87-.168ZM58.353,115.576c1.627,0,2.944,1.314,2.944,2.952s-1.317,2.962-2.944,2.962c-1.642,0-2.958-1.328-2.958-2.962s1.316-2.952,2.958-2.952M51.495,146.437l-5.493-.087-.301-2.554c-.705.772-1.316,1.331-1.823,1.66-.646.449-1.465.809-2.437,1.08-.99.263-2.124.39-3.412.356-2.381-.048-4.54-.566-6.419-1.563-1.874-1.031-3.373-2.598-4.477-4.709-1.109-2.125-1.647-4.575-1.582-7.349.044-2.186.424-4.177,1.158-6.017.601-1.494,1.508-2.834,2.732-4.006,1.187-1.176,2.52-2.064,4.014-2.645,1.854-.715,3.856-1.042,6.038-1.011,2.422.059,4.551.57,6.356,1.566,1.81.996,3.2,2.338,4.171,4.008.685,1.138,1.178,2.561,1.434,4.232l-8.041-.128c-.295-1.043-.804-1.824-1.528-2.396-.729-.555-1.602-.843-2.638-.866-1.469-.021-2.697.547-3.687,1.718-.977,1.154-1.494,3.012-1.539,5.585-.04,2.515.395,4.35,1.36,5.532.937,1.124,2.17,1.717,3.708,1.747,1.213.018,2.229-.281,3.091-.898.853-.617,1.38-1.306,1.558-2.076l-3.733-.07.089-5.586,11.65.188-.251,14.287ZM52.978,110.526h-8.293v-25.305h8.293v25.305ZM71.749,146.783l-.927-3.401-8.47-.154-1.016,3.393-8.302-.168,9.713-25.743,8.641.141,8.831,26.089-8.47-.158ZM75.836,122.611c-1.632,0-2.949-1.318-2.949-2.96s1.317-2.962,2.949-2.962c1.652,0,2.963,1.316,2.963,2.962s-1.311,2.96-2.963,2.96M78.755,124.267v.024l-1.263-.024h1.263ZM81.323,110.526h-7.884l-8.534-13.209v13.209h-7.968v-25.305h7.717l8.726,13.555v-13.555h7.943v25.305ZM107.291,147.414l-8.096-.148-8.499-13.69-.237,13.542-8.155-.147.444-25.929,7.913.141,8.694,14.053.251-13.889,8.14.144-.455,25.923ZM104.141,110.08h-11.325v-25.316h11.537c2.613,0,4.826.414,6.721,1.233,1.868.829,3.352,2.196,4.426,4.137,1.095,1.947,1.634,4.319,1.634,7.101,0,1.877-.253,3.573-.746,5.067-.468,1.492-1.075,2.703-1.783,3.654-.716.958-1.485,1.704-2.327,2.275-.811.532-1.909.986-3.235,1.338-1.331.348-2.963.511-4.901.511M136.371,147.911l-5.498-.093-.295-2.544c-.706.778-1.308,1.346-1.824,1.676-.651.424-1.466.799-2.436,1.055-.996.275-2.125.39-3.412.38-2.401-.034-4.522-.568-6.429-1.573-1.864-1.036-3.363-2.605-4.477-4.713-1.095-2.131-1.633-4.565-1.579-7.361.03-2.168.42-4.176,1.155-5.99.612-1.505,1.518-2.846,2.732-4.017,1.183-1.187,2.54-2.067,4.023-2.659,1.835-.687,3.861-1.03,6.031-.984,2.43.039,4.539.555,6.355,1.553,1.824.997,3.205,2.341,4.19,4.007.686,1.138,1.149,2.554,1.405,4.25l-8.021-.16c-.295-1.019-.798-1.812-1.536-2.366-.726-.586-1.594-.858-2.644-.881-1.455-.022-2.678.547-3.678,1.711-.981,1.164-1.499,3.036-1.538,5.595-.045,2.51.419,4.363,1.347,5.513.94,1.146,2.173,1.731,3.711,1.763,1.218.026,2.233-.281,3.095-.896.873-.617,1.391-1.308,1.559-2.077l-3.738-.073.113-5.587,11.637.201-.247,14.268ZM150.59,94.285v5.741h-10.655v3.968h13.065v6.085h-21.091v-25.316h20.579v5.965h-12.553v3.556h10.655ZM161.914,148.36l-21.61-.364.458-25.924,21.078.37-.104,6.107-12.868-.239-.054,3.667,10.907.173-.094,5.885-10.927-.206-.062,4.082,13.379.247-.103,6.201ZM155.92,73.472l-.276-15.617-4.215,15.697-6.365.119-4.784-15.559.267,15.632-8.233.144-.473-27.834,11.034-.2,5.227,17.302,4.56-17.479,11.064-.181.463,27.83-8.268.146Z" fill="#b91b11"/>
    <path d="M77.512,68.704c1.05-.022,1.988-.305,2.836-.853.843-.523,1.503-1.397,2.001-2.62.494-1.21.745-2.691.685-4.434-.015-1.256-.157-2.36-.433-3.345-.261-.974-.602-1.744-1.046-2.356-.429-.588-1.001-1.08-1.715-1.484-.726-.394-1.529-.584-2.411-.57-1.006.022-1.952.318-2.806.89-.892.577-1.568,1.47-2.075,2.668-.493,1.196-.714,2.656-.685,4.388.034,2.623.675,4.646,1.879,6.09.965,1.118,2.218,1.65,3.771,1.628" fill="#b91b11"/>
    <path d="M107.82,92.652c-.35-.512-.81-.869-1.326-1.102-.74-.312-1.859-.489-3.388-.489h-2.18v12.734l2.101-.011c1.538,0,2.707-.238,3.486-.662.788-.449,1.4-1.175,1.809-2.169.425-.997.645-2.257.645-3.722,0-.928-.093-1.765-.295-2.586-.202-.807-.483-1.47-.852-1.991" fill="#b91b11"/>
  </g>
</svg>