<?xml version="1.0" encoding="UTF-8"?>
<svg id="Ebene_1" xmlns="http://www.w3.org/2000/svg" version="1.1" viewBox="0 0 804.349 807.289">
  <!-- Generator: Adobe Illustrator 30.0.0, SVG Export Plug-In . SVG Version: 2.1.1 Build 123)  -->
  <path d="M604.836,100.711h75.294s13.908-2.398,12.469,18.704c-1.439,21.101-10.551,148.189-8.153,200.463,2.398,52.274,7.673,51.794-1.918,52.274s-81.049,0-81.049,0c0,0-18.704-2.398-9.112-11.51,9.592-9.112,33.57-31.633,35.968-77.202,2.398-45.57,1.439-105.037-.48-123.261-1.918-18.224-4.796-46.519-24.938-51.794-20.142-5.275-10.551-7.673,1.918-7.673Z" fill="#b91b11"/>
  <ellipse cx="642.793" cy="44.84" rx="53.163" ry="44.84" fill="#b91b11"/>
  <path d="M518.992,155.862c-44.121-10.071-92.799-15.346-134.641-13.908,0,0-20.742,1.918-19.303-9.592,1.439-11.51,7.673-46.039,16.785-59.947,9.112-13.908,7.194-16.306-6.714-18.224-13.908-1.918-78.171-3.357-78.171-3.357,0,0-6.234,1.439-2.398,9.112,3.837,7.673,14.867,21.581,16.785,84.405,1.918,62.825-2.483,140.516-11.553,157.301-9.069,16.785-22.497,48.437-39.283,29.734-16.785-18.703-18.703-111.262-12.469-158.26,6.234-46.999,21.581-99.273,23.979-106.946,2.398-7.673,6.714-15.346-5.275-14.867-11.989.48-66.661.48-66.661.48,0,0-5.275-2.398-2.877-10.551,2.398-8.153,3.837-14.867-12.469-14.867h-95.915s-11.805,5.116-.48,12.469c0,0,18.704,2.398,20.622,36.448,1.918,34.05-.48,144.832-4.796,196.627-4.316,51.794-8.632,82.008-27.336,68.579s-29.734-45.56-34.53-78.651c-4.796-33.091-16.785-86.324-17.744-97.354-.959-11.03-3.357-15.346-8.153-14.867s-7.194,3.357-7.194,16.785S.09,345.295.09,345.295c0,0-1.439,15.346,7.194,12.949,8.632-2.398,26.377-17.744,44.121-9.592,17.744,8.153,25.897,18.703,47.478,18.224,21.581-.48,61.865-11.51,65.702-58.988,3.837-47.478,11.989-208.136,11.989-208.136,0,0-.48-16.785,6.714-23.979,7.194-7.194,14.387-5.755,14.867,10.551.48,16.306-5.755,101.67-7.673,113.18-1.918,11.51-6.714,87.283,1.918,113.66,8.632,26.377,19.663,51.794,48.437,52.753,28.775.959,46.519-16.785,60.906-41.723,14.387-24.938,1.439,33.57,1.439,33.57,0,0-5.755,15.346,1.439,17.744,7.194,2.398,66.182,7.194,78.171,7.194s17.265-4.316,9.112-11.03c-8.153-6.714-29.673-20.622-29.194-52.274,0,0-2.938-118.935,3.776-166.413,0,0,40.284,7.194,43.641,57.07,3.357,49.876,2.877,238.829,2.877,238.829,0,0-1.918,51.794-26.856,69.539,0,0-18.224,12.949-6.234,14.387,11.989,1.439,105.507,7.673,105.507,7.673,0,0,13.428.959,6.234-10.551-7.194-11.51-21.581-49.876-21.101-88.242.48-38.366-.48-87.283-.48-87.283,0,0-.959-9.592,9.592-1.918,10.551,7.673,30.693,18.703,50.835,17.744,20.142-.959,68.58-19.183,69.059-99.273.48-80.089-36.448-105.027-80.569-115.098ZM527.442,312.192c-13.521,25.841-28.545,27.644-41.165,25.841-12.62-1.803-11.418-19.23-11.418-19.23l2.103-148.735s.901-5.709,5.408-5.408c4.507.3,37.86,10.216,50.179,43.869,12.319,33.653,8.413,77.823-5.108,103.664Z" fill="#b91b11"/>
  <path d="M457.412,582.379c-25.14-14.814-70.481-15.263-100.11,2.694-29.629,17.957-21.548,18.855-21.548-.449s12.121-167.897,12.121-167.897c0,0,5.387-24.691-10.774-24.691h-81.704s-21.815,2.201-5.643,10.482c0,0,30.383,8.113,31.044,36.514.661,28.402-3.963,249.011-15.522,289.302-11.559,40.291-16.182,47.556-24.108,53.501-7.926,5.945-9.247,10.568,0,11.228,9.247.661,80.582,0,80.582,0,0,0,8.169-.589,8.169-11.812s3.143-7.632,8.081-6.285c4.938,1.347,91.131,35.465,136.921-38.607,45.79-74.072,7.632-139.166-17.508-153.98ZM429.13,701.567c-10.774,46.015-43.545,69.807-65.543,69.807s-25.589-31.874-28.282-44.892,1.796-94.723,1.796-94.723c8.53-33.22,28.282-35.016,57.911-28.731,29.629,6.285,44.892,52.524,34.118,98.539Z" fill="#b91b11"/>
  <path d="M794.103,592.696c-18.855-23.785-47.137-36.381-70.481-19.533-23.344,16.847-19.304,17.745-19.304,4.727s-1.347-11.889-7.183-12.454-65.992,0-65.992,0c0,0-15.263-5.054-24.691-13.584-9.427-8.53-35.016-18.209-57.911-11.349-22.895,6.86-50.119,33-52.219,59.66-2.1,26.659,3.287,50.003,27.529,57.186,24.242,7.183,38.647,6.734,19.304,11.672,0,0-58.809,17.059-61.054,63.747-2.245,46.688,12.121,57.013,30.527,63.298,18.406,6.285,43.994-.449,59.258-15.263,15.263-14.814,17.508-20.65,19.753-13.917,2.245,6.734,11.672,26.249,25.14,31.53s26.037,8.873,32.322,8.873,11.672-.449,4.04-8.081c-7.632-7.632-18.406-38.607-18.406-65.543s3.591-61.502,4.04-83.5c.449-21.997-.898-58.36-4.489-65.992-3.591-7.632-5.836-12.121.449-10.774,6.285,1.347,21.414,9.53,22.154,26.762.741,17.232,10.617,112.404,6.128,134.401-4.489,21.997-24.691,35.914-12.121,36.812s61.054,0,61.054,0c0,0,11.672-1.347,4.938-10.774-6.734-9.427-13.019-23.344-13.468-58.36-.449-35.016-2.693-102.171,13.019-110.252,0,0,17.508-10.957,30.078-4.672,12.57,6.285,21.099,15.712,11.223,17.508-9.876,1.796-24.691-1.347-30.078,10.325-5.387,11.672-17.059,30.078,1.347,50.279,18.406,20.201,49.83,13.019,61.502-1.347,11.672-14.365,22.446-47.601,3.591-71.386ZM592.212,664.035l-5.086,85.012s3.391-1.211-14.774,10.657c-18.165,11.868-38.752-2.664-43.354-15.016-4.602-12.352,1.453-34.15,9.93-46.987,8.477-12.837,43.838-33.666,43.838-33.666,9.93-7.993,9.446,0,9.446,0ZM595.896,621.987c-1.195,24.692-13.142,31.263-16.926,32.856s-7.766,1.593-6.571-2.874c1.195-4.467,4.58-3.697,11.749-20.822,7.168-17.125-3.584-39.626-9.956-49.782-6.372-10.155-15.731-11.948-21.904-11.749s-5.974,8.363-3.983,13.541c1.991,5.177,7.965,17.921,8.961,35.046.996,17.125-3.186,32.458-11.35,33.652-8.164,1.195-11.749-7.169-14.735-22.302-2.987-15.134,2.589-48.388,2.589-48.388,2.399-18.379,20.311-29.072,27.878-31.86,7.567-2.788,20.908,4.58,26.882,12.545,5.974,7.965,8.562,35.445,7.368,60.136ZM771.526,655.811c-.797,8.934-7.965,12.771-12.943,10.979s-7.368-16.727-7.766-29.072c-.398-12.346,13.142-25.687,13.142-25.687,2.213-2.397,3.783-.199,5.775,3.982,1.991,4.182,2.589,30.865,1.792,39.798Z" fill="#b91b11"/>
</svg>