<?xml version="1.0" encoding="UTF-8"?>
<svg id="Ebene_1" xmlns="http://www.w3.org/2000/svg" version="1.1" viewBox="0 0 1000 1000">
  <!-- Generator: Adobe Illustrator 29.7.1, SVG Export Plug-In . SVG Version: 2.1.1 Build 8)  -->
  <path d="M682.08,208.444h75.294s13.908-2.398,12.469,18.704c-1.439,21.101-10.551,148.189-8.153,200.463,2.398,52.274,7.673,51.794-1.918,52.274-9.592.48-81.049,0-81.049,0,0,0-18.704-2.398-9.112-11.51,9.592-9.112,33.57-31.633,35.968-77.202,2.398-45.57,1.439-105.037-.48-123.261-1.918-18.224-4.796-46.519-24.938-51.794s-10.551-7.673,1.918-7.673Z" fill="#b91b11"/>
  <ellipse cx="720.037" cy="152.573" rx="53.163" ry="44.84" fill="#b91b11"/>
  <path d="M596.236,263.595c-44.121-10.071-92.799-15.346-134.641-13.908,0,0-20.742,1.918-19.303-9.592,1.439-11.51,7.673-46.039,16.785-59.947,9.112-13.908,7.194-16.306-6.714-18.224-13.908-1.918-78.171-3.357-78.171-3.357,0,0-6.234,1.439-2.398,9.112,3.837,7.673,14.867,21.581,16.785,84.405,1.918,62.825-2.483,140.516-11.553,157.301-9.069,16.785-22.497,48.437-39.283,29.734-16.785-18.703-18.703-111.262-12.469-158.26,6.234-46.999,21.581-99.273,23.979-106.946,2.398-7.673,6.714-15.346-5.275-14.867-11.989.48-66.661.48-66.661.48,0,0-5.275-2.398-2.877-10.551,2.398-8.153,3.837-14.867-12.469-14.867h-95.915s-11.805,5.116-.48,12.469c0,0,18.704,2.398,20.622,36.448,1.918,34.05-.48,144.832-4.796,196.627-4.316,51.794-8.632,82.008-27.336,68.579-18.703-13.428-29.734-45.56-34.53-78.651-4.796-33.091-16.785-86.324-17.744-97.354-.959-11.03-3.357-15.346-8.153-14.867s-7.194,3.357-7.194,16.785-9.112,178.882-9.112,178.882c0,0-1.439,15.346,7.194,12.949,8.632-2.398,26.377-17.744,44.121-9.592,17.744,8.153,25.897,18.703,47.478,18.224,21.581-.48,61.865-11.51,65.702-58.988,3.837-47.478,11.989-208.136,11.989-208.136,0,0-.48-16.785,6.714-23.979,7.194-7.194,14.387-5.755,14.867,10.551.48,16.306-5.755,101.67-7.673,113.18-1.918,11.51-6.714,87.283,1.918,113.66,8.632,26.377,19.663,51.794,48.437,52.753,28.775.959,46.519-16.785,60.906-41.723,14.387-24.938,1.439,33.57,1.439,33.57,0,0-5.755,15.346,1.439,17.744,7.194,2.398,66.182,7.194,78.171,7.194s17.265-4.316,9.112-11.03c-8.153-6.714-29.673-20.622-29.194-52.274,0,0-2.938-118.935,3.776-166.413,0,0,40.284,7.194,43.641,57.07,3.357,49.876,2.877,238.829,2.877,238.829,0,0-1.918,51.794-26.856,69.539,0,0-18.224,12.949-6.234,14.387,11.989,1.439,105.507,7.673,105.507,7.673,0,0,13.428.959,6.234-10.551-7.194-11.51-21.581-49.876-21.101-88.242.48-38.366-.48-87.283-.48-87.283,0,0-.959-9.592,9.592-1.918,10.551,7.673,30.693,18.703,50.835,17.744,20.142-.959,68.58-19.183,69.059-99.273.48-80.089-36.448-105.027-80.569-115.098ZM604.686,419.925c-13.521,25.841-28.545,27.644-41.165,25.841-12.62-1.803-11.418-19.23-11.418-19.23l2.103-148.735s.901-5.709,5.408-5.408c4.507.3,37.86,10.216,50.179,43.869,12.319,33.653,8.413,77.823-5.108,103.664Z" fill="#b91b11"/>
  <path d="M534.656,690.111c-25.14-14.814-70.481-15.263-100.11,2.694-29.629,17.957-21.548,18.855-21.548-.449s12.121-167.897,12.121-167.897c0,0,5.387-24.691-10.774-24.691h-81.704s-21.815,2.201-5.643,10.482c0,0,30.383,8.113,31.044,36.514.661,28.402-3.963,249.011-15.522,289.302-11.559,40.291-16.182,47.556-24.108,53.501-7.926,5.945-9.247,10.568,0,11.228,9.247.661,80.582,0,80.582,0,0,0,8.169-.589,8.169-11.812s3.143-7.632,8.081-6.285c4.938,1.347,91.131,35.465,136.921-38.607,45.79-74.072,7.632-139.166-17.508-153.98ZM506.374,809.3c-10.774,46.015-43.545,69.807-65.543,69.807s-25.589-31.874-28.282-44.892,1.796-94.723,1.796-94.723c8.53-33.22,28.282-35.016,57.911-28.731,29.629,6.285,44.892,52.524,34.118,98.539Z" fill="#b91b11"/>
  <path d="M871.347,700.429c-18.855-23.785-47.137-36.381-70.481-19.533-23.344,16.847-19.304,17.745-19.304,4.727s-1.347-11.889-7.183-12.454c-5.836-.565-65.992,0-65.992,0,0,0-15.263-5.054-24.691-13.584-9.427-8.53-35.016-18.209-57.911-11.349-22.895,6.86-50.119,33-52.219,59.66-2.1,26.659,3.287,50.003,27.529,57.186,24.242,7.183,38.647,6.734,19.304,11.672,0,0-58.809,17.059-61.054,63.747-2.245,46.688,12.121,57.013,30.527,63.298,18.406,6.285,43.994-.449,59.258-15.263,15.263-14.814,17.508-20.65,19.753-13.917,2.245,6.734,11.672,26.249,25.14,31.53s26.037,8.873,32.322,8.873,11.672-.449,4.04-8.081-18.406-38.607-18.406-65.543,3.591-61.502,4.04-83.5c.449-21.997-.898-58.36-4.489-65.992-3.591-7.632-5.836-12.121.449-10.774,6.285,1.347,21.414,9.53,22.154,26.762.741,17.232,10.617,112.404,6.128,134.401-4.489,21.997-24.691,35.914-12.121,36.812,12.57.898,61.054,0,61.054,0,0,0,11.672-1.347,4.938-10.774-6.734-9.427-13.019-23.344-13.468-58.36-.449-35.016-2.693-102.171,13.019-110.252,0,0,17.508-10.957,30.078-4.672,12.57,6.285,21.099,15.712,11.223,17.508-9.876,1.796-24.691-1.347-30.078,10.325-5.387,11.672-17.059,30.078,1.347,50.279,18.406,20.201,49.83,13.019,61.502-1.347,11.672-14.365,22.446-47.601,3.591-71.386ZM669.456,771.767l-5.086,85.012s3.391-1.211-14.774,10.657c-18.165,11.868-38.752-2.664-43.354-15.016-4.602-12.352,1.453-34.15,9.93-46.987,8.477-12.837,43.838-33.666,43.838-33.666,9.93-7.993,9.446,0,9.446,0ZM673.14,729.719c-1.195,24.692-13.142,31.263-16.926,32.856s-7.766,1.593-6.571-2.874,4.58-3.697,11.749-20.822c7.168-17.125-3.584-39.626-9.956-49.782-6.372-10.155-15.731-11.948-21.904-11.749-6.173.199-5.974,8.363-3.983,13.541,1.991,5.177,7.965,17.921,8.961,35.046.996,17.125-3.186,32.458-11.35,33.652-8.164,1.195-11.749-7.169-14.735-22.302-2.987-15.134,2.589-48.388,2.589-48.388,2.399-18.379,20.311-29.072,27.878-31.86,7.567-2.788,20.908,4.58,26.882,12.545,5.974,7.965,8.562,35.445,7.368,60.136ZM848.77,763.544c-.797,8.934-7.965,12.771-12.943,10.979s-7.368-16.727-7.766-29.072c-.398-12.346,13.142-25.687,13.142-25.687,2.213-2.397,3.783-.199,5.775,3.982,1.991,4.182,2.589,30.865,1.792,39.798Z" fill="#b91b11"/>
  <g>
    <polygon points="170.207 676.29 175.625 676.403 173.022 666.939 170.207 676.29" fill="#b91b11"/>
    <g>
      <path d="M203.1,538.367c-53.524,0-96.925,43.388-96.925,96.925s43.401,96.959,96.925,96.959,96.95-43.408,96.95-96.959-43.402-96.925-96.95-96.925M211.958,584.861l5.207,17.301,4.58-17.466,11.034-.19.493,27.844-8.292.128-.262-15.595-4.225,15.693-6.375.106-4.763-15.535.262,15.603-8.229.144-.484-27.83,11.054-.204ZM234.069,648.447h-8.297v-25.316h8.297v25.316ZM169.838,593.767c.58-1.707,1.379-3.143,2.395-4.304,1.04-1.188,2.096-2.101,3.215-2.739,1.114-.632,2.326-1.143,3.654-1.496,1.316-.368,2.687-.558,4.151-.59,2.751-.051,5.271.481,7.597,1.6,2.338,1.102,4.122,2.761,5.385,4.932,1.267,2.159,1.917,4.669,1.982,7.514.049,2.804-.453,5.316-1.483,7.571-1.046,2.228-2.648,4.041-4.818,5.464-2.17,1.426-4.827,2.172-7.987,2.219-4.437.083-8.017-1.209-10.728-3.832-2.727-2.641-4.098-6.175-4.181-10.61-.045-2.124.222-4.035.819-5.729M149.269,585.962l.162,9.192,8.061-9.334,10.758-.19-10.023,10.667,11.527,17.155-10.907.189-6.868-10.969-2.381,2.43.159,8.706-8.86.144-.498-27.822,8.87-.168ZM164.527,653.944c1.627,0,2.944,1.314,2.944,2.952s-1.317,2.962-2.944,2.962c-1.642,0-2.958-1.328-2.958-2.962s1.316-2.952,2.958-2.952M157.669,684.804l-5.493-.087-.301-2.554c-.705.772-1.316,1.331-1.823,1.66-.646.449-1.465.809-2.437,1.08-.99.263-2.124.39-3.412.356-2.381-.048-4.54-.566-6.419-1.563-1.874-1.031-3.373-2.598-4.477-4.709-1.109-2.125-1.647-4.575-1.582-7.349.044-2.186.424-4.177,1.158-6.017.601-1.494,1.508-2.834,2.732-4.006,1.187-1.176,2.52-2.064,4.014-2.645,1.854-.715,3.856-1.042,6.038-1.011,2.422.059,4.551.57,6.356,1.566,1.81.996,3.2,2.338,4.171,4.008.685,1.138,1.178,2.561,1.434,4.232l-8.041-.128c-.295-1.043-.804-1.824-1.528-2.396-.729-.555-1.602-.843-2.638-.866-1.469-.021-2.697.547-3.687,1.718-.977,1.154-1.494,3.012-1.539,5.585-.04,2.515.395,4.35,1.36,5.532.937,1.124,2.17,1.717,3.708,1.747,1.213.018,2.229-.281,3.091-.898.853-.617,1.38-1.306,1.558-2.076l-3.733-.07.089-5.586,11.65.188-.251,14.287ZM159.152,648.893h-8.293v-25.305h8.293v25.305ZM177.923,685.15l-.927-3.401-8.47-.154-1.016,3.393-8.302-.168,9.713-25.743,8.641.141,8.831,26.089-8.47-.158ZM182.01,660.978c-1.632,0-2.949-1.318-2.949-2.96s1.317-2.962,2.949-2.962c1.652,0,2.963,1.316,2.963,2.962s-1.311,2.96-2.963,2.96M184.929,662.634v.024l-1.263-.024h1.263ZM187.497,648.893h-7.884l-8.534-13.209v13.209h-7.968v-25.305h7.717l8.726,13.555v-13.555h7.943v25.305ZM213.465,685.781l-8.096-.148-8.499-13.69-.237,13.542-8.155-.147.444-25.929,7.913.141,8.694,14.053.251-13.889,8.14.144-.455,25.923ZM210.315,648.447h-11.325v-25.316h11.537c2.613,0,4.826.414,6.721,1.233,1.868.829,3.352,2.196,4.426,4.137,1.095,1.947,1.634,4.319,1.634,7.101,0,1.877-.253,3.573-.746,5.067-.468,1.492-1.075,2.703-1.783,3.654-.716.958-1.485,1.704-2.327,2.275-.811.532-1.909.986-3.235,1.338-1.331.348-2.963.511-4.901.511M242.545,686.278l-5.498-.093-.295-2.544c-.706.778-1.308,1.346-1.824,1.676-.651.424-1.466.799-2.436,1.055-.996.275-2.125.39-3.412.38-2.401-.034-4.522-.568-6.429-1.573-1.864-1.036-3.363-2.605-4.477-4.713-1.095-2.131-1.633-4.565-1.579-7.361.03-2.168.42-4.176,1.155-5.99.612-1.505,1.518-2.846,2.732-4.017,1.183-1.187,2.54-2.067,4.023-2.659,1.835-.687,3.861-1.03,6.031-.984,2.43.039,4.539.555,6.355,1.553,1.824.997,3.205,2.341,4.19,4.007.686,1.138,1.149,2.554,1.405,4.25l-8.021-.16c-.295-1.019-.798-1.812-1.536-2.366-.726-.586-1.594-.858-2.644-.881-1.455-.022-2.678.547-3.678,1.711-.981,1.164-1.499,3.036-1.538,5.595-.045,2.51.419,4.363,1.347,5.513.94,1.146,2.173,1.731,3.711,1.763,1.218.026,2.233-.281,3.095-.896.873-.617,1.391-1.308,1.559-2.077l-3.738-.073.113-5.587,11.637.201-.247,14.268ZM256.764,632.652v5.741h-10.655v3.968h13.065v6.085h-21.091v-25.316h20.579v5.965h-12.553v3.556h10.655ZM268.088,686.727l-21.61-.364.458-25.924,21.078.37-.104,6.107-12.868-.239-.054,3.667,10.907.173-.094,5.885-10.927-.206-.062,4.082,13.379.247-.103,6.201ZM262.094,611.839l-.276-15.617-4.215,15.697-6.365.119-4.784-15.559.267,15.632-8.233.144-.473-27.834,11.034-.2,5.227,17.302,4.56-17.479,11.064-.181.463,27.83-8.268.146Z" fill="#b91b11"/>
      <path d="M183.686,607.072c1.05-.022,1.988-.305,2.836-.853.843-.523,1.503-1.397,2.001-2.62.494-1.21.745-2.691.685-4.434-.015-1.256-.157-2.36-.433-3.345-.261-.974-.602-1.744-1.046-2.356-.429-.588-1.001-1.08-1.715-1.484-.726-.394-1.529-.584-2.411-.57-1.006.022-1.952.318-2.806.89-.892.577-1.568,1.47-2.075,2.668-.493,1.196-.714,2.656-.685,4.388.034,2.623.675,4.646,1.879,6.09.965,1.118,2.218,1.65,3.771,1.628" fill="#b91b11"/>
      <path d="M213.994,631.019c-.35-.512-.81-.869-1.326-1.102-.74-.312-1.859-.489-3.388-.489h-2.18v12.734l2.101-.011c1.538,0,2.707-.238,3.486-.662.788-.449,1.4-1.175,1.809-2.169.425-.997.645-2.257.645-3.722,0-.928-.093-1.765-.295-2.586-.202-.807-.483-1.47-.852-1.991" fill="#b91b11"/>
    </g>
  </g>
</svg>